<?xml version="1.0" encoding="utf-8"?>
<!-- Generator: Adobe Illustrator 20.1.0, SVG Export Plug-In . SVG Version: 6.00 Build 0)  -->
<svg version="1.1" id="Layer_1" xmlns="http://www.w3.org/2000/svg" xmlns:xlink="http://www.w3.org/1999/xlink" x="0px" y="0px"
	 viewBox="0 0 434.6 89.6" style="enable-background:new 0 0 434.6 89.6;" xml:space="preserve">
<style type="text/css">
	.st0{fill:#FFFFFF;}
</style>
<g>
	<g>
		<path class="st0" d="M106.8,75.4c3.2,0,6-0.5,8.5-1.6c2.5-1.1,4.6-2.5,6.3-4.5c1.7-1.9,3.1-4.2,4-7c0.9-2.7,1.4-5.8,1.4-9.2V0.4
			h16.4v52.8c0,5.2-0.8,10.1-2.5,14.6c-1.7,4.5-4.1,8.3-7.3,11.5c-3.2,3.2-7,5.8-11.5,7.6c-4.5,1.8-9.6,2.7-15.3,2.7
			c-5.7,0-10.7-0.9-15.3-2.7c-4.5-1.8-8.3-4.3-11.5-7.6c-3.2-3.2-5.6-7.1-7.3-11.5c-1.7-4.5-2.5-9.3-2.5-14.6V0.4h16.4v52.8
			c0,3.4,0.5,6.4,1.4,9.2c0.9,2.7,2.2,5.1,3.9,7c1.7,1.9,3.8,3.4,6.3,4.5C100.8,74.9,103.7,75.4,106.8,75.4z"/>
		<path class="st0" d="M289.3,88.6h-16.5V50.1h-41.4v38.6h-16.5V0.4h16.5v37.9h41.4V0.4h16.5V88.6z"/>
	</g>
	<path class="st0" d="M26.5,44.8l-5.7,12.7c4.6-0.2,19.3-0.9,22.9-2.1c4.3-1.4,7.8-3.4,10.7-6c2.8-2.6,5-5.6,6.4-9.2
		c1.4-3.6,2.1-7.5,2.1-11.7c0-4.1-0.7-7.9-2-11.3c-1.3-3.5-3.4-6.4-6.2-8.9C51.9,5.8,48.4,3.9,44,2.5c-4.3-1.4-9.4-2.1-15.3-2.1H0
		v88.2h16.4V59.9v-2.3V44.8V13.1h12.3c3,0,5.6,0.4,7.9,1.1c2.2,0.7,4.1,1.7,5.6,3.1s2.6,3,3.3,4.9c0.7,1.9,1.1,4,1.1,6.4
		c0,2.5-0.4,4.7-1.1,6.7s-1.8,3.7-3.3,5.1s-3.3,2.5-5.6,3.2"/>
	<path class="st0" d="M169.1,52.6l24-41.6c1.5-2.5,0.6-5.8-1.9-7.2L186.4,1c-2.5-1.5-5.8-0.6-7.2,1.9l-24,41.6
		c-1.5,2.5-0.6,5.8,1.9,7.2l4.8,2.7C164.4,56,167.6,55.1,169.1,52.6z"/>
	<polygon class="st0" points="300.2,0.4 300.2,13.5 316.7,13.5 355.8,13.5 355.8,0.4 	"/>
	<g>
		<polygon class="st0" points="320.8,50.6 351.6,50.6 351.6,37.9 320.8,37.9 320.8,37.7 304.3,37.7 304.3,50.6 		"/>
		<polygon class="st0" points="316.7,75.5 316.7,75.8 300.2,75.8 300.2,88.6 355.8,88.6 355.8,75.5 		"/>
	</g>
	<path class="st0" d="M176.5,86.1l24-41.6c1.5-2.5,0.6-5.8-1.9-7.2l-4.8-2.7c-2.5-1.5-5.8-0.6-7.2,1.9l-24,41.6
		c-1.5,2.5-0.6,5.8,1.9,7.2l4.8,2.7C171.8,89.5,175.1,88.7,176.5,86.1z"/>
	<g>
		<path class="st0" d="M381.8,54v34.7h-16.5V0h27.1c6.1,0,11.2,0.6,15.5,1.9c4.3,1.2,7.9,3,10.6,5.2c2.8,2.2,4.8,4.9,6.1,8.1
			s1.9,6.6,1.9,10.3c0,3-0.4,5.8-1.3,8.5c-0.9,2.7-2.1,5.1-3.8,7.2c-1.7,2.2-3.7,4.1-6.1,5.7c-2.4,1.6-5.2,2.9-8.3,3.9
			c2.1,1.2,3.9,2.9,5.4,5.1l22.2,32.8h-14.8c-1.4,0-2.6-0.3-3.6-0.9c-1-0.6-1.9-1.4-2.5-2.5L394.9,57c-0.7-1.1-1.5-1.8-2.3-2.3
			c-0.8-0.4-2.1-0.7-3.7-0.7H381.8z M381.8,42.2h10.3c3.1,0,5.8-0.4,8.1-1.2c2.3-0.8,4.2-1.9,5.7-3.2c1.5-1.4,2.6-3,3.3-4.9
			c0.7-1.9,1.1-3.9,1.1-6.2c0-4.5-1.5-8-4.4-10.4c-3-2.4-7.5-3.6-13.6-3.6h-10.6V42.2z"/>
	</g>
</g>
</svg>
